<svg width="274" height="62" viewBox="0 0 274 62" fill="none" xmlns="http://www.w3.org/2000/svg">
<rect width="274" height="62"/>
<g opacity="0.7" filter="url(#filter0_f_9_8)">
<path d="M61.5 51C78.3447 51 92 41.8218 92 30.5C92 19.1782 78.3447 10 61.5 10C44.6553 10 31 19.1782 31 30.5C31 41.8218 44.6553 51 61.5 51Z" fill="url(#paint0_linear_9_8)"/>
</g>
<path d="M61 49C75.3594 49 87 40.9411 87 31C87 21.0589 75.3594 13 61 13C46.6406 13 35 21.0589 35 31C35 40.9411 46.6406 49 61 49Z" fill="black"/>
<path d="M60.875 18L47 24.0417V37.3333L60.875 43.375L74.75 37.3333V24.0417L60.875 18ZM60.875 20.7925L71.5079 25.4313L60.875 30.3117L50.2421 25.4313L60.875 20.7925ZM50.0833 27.6461L59.3333 31.7243V39.5591L50.0833 35.481V27.6461ZM71.6667 27.6461V35.4798L62.4167 39.5579V31.7243L71.6667 27.6461Z" fill="white"/>
<path d="M105.705 14.8182L112.455 25.7102H112.659L119.409 14.8182H123.142L114.909 27.9091L123.142 41H119.409L112.659 30.3125H112.455L105.705 41H101.972L110.409 27.9091L101.972 14.8182H105.705ZM134.072 41.4091C132.18 41.4091 130.548 40.9915 129.176 40.1562C127.812 39.3125 126.76 38.1364 126.018 36.6278C125.286 35.1108 124.919 33.3466 124.919 31.3352C124.919 29.3239 125.286 27.5511 126.018 26.017C126.76 24.4744 127.791 23.2727 129.112 22.4119C130.442 21.5426 131.993 21.108 133.766 21.108C134.788 21.108 135.798 21.2784 136.795 21.6193C137.793 21.9602 138.7 22.5142 139.518 23.2812C140.337 24.0398 140.989 25.0455 141.474 26.2983C141.96 27.5511 142.203 29.0937 142.203 30.9261V32.2045H127.067V29.5966H139.135C139.135 28.4886 138.913 27.5 138.47 26.6307C138.036 25.7614 137.413 25.0753 136.604 24.5724C135.803 24.0696 134.857 23.8182 133.766 23.8182C132.564 23.8182 131.524 24.1165 130.646 24.7131C129.777 25.3011 129.108 26.0682 128.639 27.0142C128.17 27.9602 127.936 28.9744 127.936 30.0568V31.7955C127.936 33.2784 128.192 34.5355 128.703 35.5668C129.223 36.5895 129.943 37.3693 130.864 37.9062C131.784 38.4347 132.854 38.6989 134.072 38.6989C134.865 38.6989 135.581 38.5881 136.22 38.3665C136.868 38.1364 137.426 37.7955 137.895 37.3438C138.364 36.8835 138.726 36.3125 138.982 35.6307L141.896 36.4489C141.589 37.4375 141.074 38.3068 140.349 39.0568C139.625 39.7983 138.73 40.3778 137.665 40.7955C136.599 41.2045 135.402 41.4091 134.072 41.4091ZM149.81 29.1875V41H146.793V21.3636H149.707V24.4318H149.963C150.423 23.4347 151.122 22.6335 152.06 22.0284C152.997 21.4148 154.207 21.108 155.69 21.108C157.02 21.108 158.183 21.3807 159.18 21.9261C160.178 22.4631 160.953 23.2812 161.507 24.3807C162.061 25.4716 162.338 26.8523 162.338 28.5227V41H159.321V28.7273C159.321 27.1847 158.92 25.983 158.119 25.1222C157.318 24.2528 156.219 23.8182 154.821 23.8182C153.858 23.8182 152.997 24.027 152.239 24.4446C151.489 24.8622 150.896 25.4716 150.462 26.2727C150.027 27.0739 149.81 28.0455 149.81 29.1875ZM175.828 41.4091C174.056 41.4091 172.5 40.9872 171.162 40.1435C169.833 39.2997 168.793 38.1193 168.043 36.6023C167.301 35.0852 166.931 33.3125 166.931 31.2841C166.931 29.2386 167.301 27.4531 168.043 25.9276C168.793 24.402 169.833 23.2173 171.162 22.3736C172.5 21.5298 174.056 21.108 175.828 21.108C177.601 21.108 179.152 21.5298 180.482 22.3736C181.82 23.2173 182.86 24.402 183.601 25.9276C184.351 27.4531 184.726 29.2386 184.726 31.2841C184.726 33.3125 184.351 35.0852 183.601 36.6023C182.86 38.1193 181.82 39.2997 180.482 40.1435C179.152 40.9872 177.601 41.4091 175.828 41.4091ZM175.828 38.6989C177.175 38.6989 178.283 38.3537 179.152 37.6634C180.022 36.973 180.665 36.0653 181.083 34.9403C181.5 33.8153 181.709 32.5966 181.709 31.2841C181.709 29.9716 181.5 28.7486 181.083 27.6151C180.665 26.4815 180.022 25.5653 179.152 24.8665C178.283 24.1676 177.175 23.8182 175.828 23.8182C174.482 23.8182 173.374 24.1676 172.505 24.8665C171.635 25.5653 170.992 26.4815 170.574 27.6151C170.157 28.7486 169.948 29.9716 169.948 31.2841C169.948 32.5966 170.157 33.8153 170.574 34.9403C170.992 36.0653 171.635 36.973 172.505 37.6634C173.374 38.3537 174.482 38.6989 175.828 38.6989ZM204.685 21.3636L197.424 41H194.356L187.094 21.3636H190.367L195.788 37.0114H195.992L201.413 21.3636H204.685ZM208.668 41V21.3636H211.685V41H208.668ZM210.202 18.0909C209.614 18.0909 209.107 17.8906 208.68 17.4901C208.263 17.0895 208.054 16.608 208.054 16.0455C208.054 15.483 208.263 15.0014 208.68 14.6009C209.107 14.2003 209.614 14 210.202 14C210.79 14 211.293 14.2003 211.71 14.6009C212.136 15.0014 212.349 15.483 212.349 16.0455C212.349 16.608 212.136 17.0895 211.71 17.4901C211.293 17.8906 210.79 18.0909 210.202 18.0909ZM222.989 41.4602C221.745 41.4602 220.615 41.2259 219.601 40.7571C218.587 40.2798 217.782 39.5938 217.185 38.6989C216.588 37.7955 216.29 36.7045 216.29 35.4261C216.29 34.3011 216.512 33.3892 216.955 32.6903C217.398 31.983 217.99 31.429 218.732 31.0284C219.473 30.6278 220.292 30.3295 221.186 30.1335C222.09 29.929 222.998 29.767 223.909 29.6477C225.103 29.4943 226.07 29.3793 226.811 29.3026C227.561 29.2173 228.107 29.0767 228.448 28.8807C228.797 28.6847 228.972 28.3437 228.972 27.858V27.7557C228.972 26.4943 228.627 25.5142 227.936 24.8153C227.255 24.1165 226.219 23.767 224.83 23.767C223.39 23.767 222.26 24.0824 221.442 24.7131C220.624 25.3437 220.049 26.017 219.716 26.733L216.853 25.7102C217.364 24.517 218.046 23.5881 218.898 22.9233C219.759 22.25 220.696 21.7812 221.711 21.517C222.733 21.2443 223.739 21.108 224.728 21.108C225.358 21.108 226.083 21.1847 226.901 21.3381C227.728 21.483 228.525 21.7855 229.292 22.2457C230.067 22.706 230.711 23.4006 231.222 24.3295C231.733 25.2585 231.989 26.5028 231.989 28.0625V41H228.972V38.3409H228.819C228.614 38.767 228.273 39.223 227.796 39.7088C227.319 40.1946 226.684 40.608 225.891 40.9489C225.098 41.2898 224.131 41.4602 222.989 41.4602ZM223.449 38.75C224.642 38.75 225.648 38.5156 226.466 38.0469C227.293 37.5781 227.915 36.973 228.333 36.2315C228.759 35.4901 228.972 34.7102 228.972 33.892V31.1307C228.844 31.2841 228.563 31.4247 228.128 31.5526C227.702 31.6719 227.208 31.7784 226.645 31.8722C226.091 31.9574 225.55 32.0341 225.022 32.1023C224.502 32.1619 224.08 32.2131 223.756 32.2557C222.972 32.358 222.239 32.5241 221.557 32.7543C220.884 32.9759 220.338 33.3125 219.921 33.7642C219.512 34.2074 219.307 34.8125 219.307 35.5795C219.307 36.6278 219.695 37.4205 220.471 37.9574C221.255 38.4858 222.248 38.75 223.449 38.75Z" fill="white"/>
<defs>
<filter id="filter0_f_9_8" x="23" y="2" width="77" height="57" filterUnits="userSpaceOnUse" color-interpolation-filters="sRGB">
<feFlood flood-opacity="0" result="BackgroundImageFix"/>
<feBlend mode="normal" in="SourceGraphic" in2="BackgroundImageFix" result="shape"/>
<feGaussianBlur stdDeviation="4" result="effect1_foregroundBlur_9_8"/>
</filter>
<linearGradient id="paint0_linear_9_8" x1="31" y1="10" x2="6131" y2="10" gradientUnits="userSpaceOnUse">
<stop stop-color="#0D8050"/>
<stop offset="1" stop-color="#0D8050" stop-opacity="0.533333"/>
</linearGradient>
</defs>
</svg>
