<svg width="260" height="72" viewBox="0 0 260 72" fill="none" xmlns="http://www.w3.org/2000/svg">
  <rect x="1" y="1" width="258" height="70" rx="18" fill="#F8FAFC" stroke="#E2E8F0"/>
  <path d="M20 36C20 31.5817 23.5817 28 28 28H34V34H28C26.8954 34 26 34.8954 26 36C26 37.1046 26.8954 38 28 38H36V44H28C23.5817 44 20 40.4183 20 36Z" fill="#0F766E"/>
  <path d="M44 28C48.4183 28 52 31.5817 52 36C52 40.4183 48.4183 44 44 44H38V38H44C45.1046 38 46 37.1046 46 36C46 34.8954 45.1046 34 44 34H36V28H44Z" fill="#0F766E"/>
  <text x="68" y="42" fill="#0F172A" font-family="Inter, Arial, sans-serif" font-size="22" font-weight="700">LangChain</text>
</svg>
